<svg width="438" height="174" viewBox="0 0 438 174" fill="none" xmlns="http://www.w3.org/2000/svg">
<g clip-path="url(#clip0_507_1208)">
<rect y="42" width="438" height="132" rx="32" fill="#F64B3C"/>
<g clip-path="url(#clip1_507_1208)">
<path d="M402 77.5561L407.778 71.7781L408.761 72.7613L402.983 78.5394L408.761 84.3174L407.778 85.3006L402 79.5226L396.222 85.3006L395.239 84.3174L401.017 78.5394L395.239 72.7613L396.222 71.7781L402 77.5561Z" fill="white"/>
</g>
<path d="M140.368 78.944C142.736 78.944 144.56 78.432 146.352 77.76V88H149.936V64H146.352V74.496C144.464 75.264 142.832 75.616 140.944 75.616C137.328 75.616 135.44 74.176 135.44 70.432V64H131.856V71.36C131.856 76.192 134.704 78.944 140.368 78.944ZM158.08 88H161.408V74.976H166.656V72.096H152.832V74.976H158.08V88ZM175.579 71.808C170.779 71.808 167.227 75.296 167.227 80.032C167.227 84.8 170.779 88.288 175.579 88.288C180.411 88.288 183.931 84.8 183.931 80.032C183.931 75.296 180.411 71.808 175.579 71.808ZM175.579 74.848C178.491 74.848 180.475 76.928 180.475 80.032C180.475 83.136 178.491 85.248 175.579 85.248C172.667 85.248 170.683 83.136 170.683 80.032C170.683 76.928 172.667 74.848 175.579 74.848ZM185.326 80.672V78.176H193.07V80.672H185.326ZM199.127 88H202.455V74.976H207.703V72.096H193.879V74.976H199.127V88ZM216.625 71.808C211.825 71.808 208.273 75.296 208.273 80.032C208.273 84.8 211.825 88.288 216.625 88.288C221.457 88.288 224.977 84.8 224.977 80.032C224.977 75.296 221.457 71.808 216.625 71.808ZM216.625 74.848C219.537 74.848 221.521 76.928 221.521 80.032C221.521 83.136 219.537 85.248 216.625 85.248C213.713 85.248 211.729 83.136 211.729 80.032C211.729 76.928 213.713 74.848 216.625 74.848ZM233.5 88H236.796V81.152H244.156V88H247.484V72.096H244.156V78.272H236.796V72.096H233.5V88ZM258.357 88.288C262.197 88.288 264.949 86.368 265.813 83.2L262.645 82.624C262.069 84.32 260.693 85.376 258.357 85.376C255.701 85.376 253.813 83.904 253.493 80.96H265.813C265.877 80.448 265.941 79.904 265.941 79.424C265.941 74.912 262.741 71.808 258.165 71.808C253.461 71.808 250.069 75.296 250.069 80.032C250.069 84.832 253.237 88.288 258.357 88.288ZM258.165 74.592C260.501 74.592 262.101 76 262.421 78.304H253.621C254.165 75.84 256.053 74.592 258.165 74.592ZM277.969 88H281.297V74.976H286.545V72.096H272.721V74.976H277.969V88ZM298.279 88H301.255V78.272C301.255 74.016 298.567 71.808 294.471 71.808C290.663 71.808 288.135 73.76 287.367 76.8L290.535 77.376C291.015 75.488 292.391 74.624 294.439 74.624C296.327 74.624 297.671 75.488 297.991 77.44L293.703 78.432C290.151 79.264 287.463 80.544 287.463 83.712C287.463 86.592 289.607 88.288 292.551 88.288C294.919 88.288 296.871 87.2 298.119 85.376L298.279 88ZM290.855 83.488C290.855 82.112 291.975 81.504 293.799 81.056L298.055 80V80.384C298.055 83.776 295.591 85.504 293.127 85.504C291.719 85.504 290.855 84.768 290.855 83.488ZM304.775 72.096V88H308.071V81.344H309.959L315.335 88H319.335L312.679 79.552L318.919 72.096H314.983L310.055 78.144H308.071V72.096H304.775ZM322.346 88.32C323.69 88.32 324.65 87.424 324.65 86.08C324.65 84.704 323.69 83.808 322.346 83.808C321.002 83.808 320.01 84.704 320.01 86.08C320.01 87.424 321.002 88.32 322.346 88.32ZM329.132 88.32C330.476 88.32 331.436 87.424 331.436 86.08C331.436 84.704 330.476 83.808 329.132 83.808C327.788 83.808 326.796 84.704 326.796 86.08C326.796 87.424 327.788 88.32 329.132 88.32ZM335.918 88.32C337.262 88.32 338.222 87.424 338.222 86.08C338.222 84.704 337.262 83.808 335.918 83.808C334.574 83.808 333.582 84.704 333.582 86.08C333.582 87.424 334.574 88.32 335.918 88.32Z" fill="white"/>
<path d="M137.42 113.2H138.4V123H137.42V118.422H132.1V123H131.12V113.2H132.1V117.498H137.42V113.2ZM143.73 115.832C144.766 115.832 145.601 116.201 146.236 116.938C146.88 117.666 147.202 118.529 147.202 119.528C147.202 119.631 147.192 119.775 147.174 119.962H141.028C141.121 120.671 141.42 121.236 141.924 121.656C142.437 122.067 143.067 122.272 143.814 122.272C144.346 122.272 144.803 122.165 145.186 121.95C145.578 121.726 145.872 121.437 146.068 121.082L146.88 121.558C146.572 122.053 146.152 122.445 145.62 122.734C145.088 123.023 144.481 123.168 143.8 123.168C142.698 123.168 141.802 122.823 141.112 122.132C140.421 121.441 140.076 120.564 140.076 119.5C140.076 118.455 140.416 117.582 141.098 116.882C141.779 116.182 142.656 115.832 143.73 115.832ZM143.73 116.728C143.002 116.728 142.39 116.947 141.896 117.386C141.41 117.815 141.121 118.375 141.028 119.066H146.25C146.156 118.329 145.872 117.755 145.396 117.344C144.92 116.933 144.364 116.728 143.73 116.728ZM158.051 116V123H157.127V116.896H153.095V123H152.171V116H158.051ZM165.871 122.118C165.162 122.818 164.294 123.168 163.267 123.168C162.241 123.168 161.368 122.818 160.649 122.118C159.94 121.409 159.585 120.536 159.585 119.5C159.585 118.464 159.94 117.596 160.649 116.896C161.368 116.187 162.241 115.832 163.267 115.832C164.294 115.832 165.162 116.187 165.871 116.896C166.59 117.596 166.949 118.464 166.949 119.5C166.949 120.536 166.59 121.409 165.871 122.118ZM161.307 121.474C161.839 122.006 162.493 122.272 163.267 122.272C164.042 122.272 164.695 122.006 165.227 121.474C165.759 120.933 166.025 120.275 166.025 119.5C166.025 118.725 165.759 118.072 165.227 117.54C164.695 116.999 164.042 116.728 163.267 116.728C162.493 116.728 161.839 116.999 161.307 117.54C160.775 118.072 160.509 118.725 160.509 119.5C160.509 120.275 160.775 120.933 161.307 121.474ZM173.962 116V123H173.038V116.896H169.874V120.018C169.874 121.185 169.65 121.987 169.202 122.426C168.764 122.865 168.157 123.056 167.382 123V122.132C167.914 122.188 168.306 122.062 168.558 121.754C168.82 121.446 168.95 120.867 168.95 120.018V116H173.962ZM180.959 116H181.939L178.943 123.644C178.673 124.335 178.285 124.876 177.781 125.268C177.287 125.669 176.731 125.847 176.115 125.8V124.932C176.955 125.025 177.595 124.54 178.033 123.476L178.215 123.042L175.079 116H176.059L178.691 121.866L180.959 116ZM187.592 116H188.516V123H187.592V120.34C187.051 120.62 186.384 120.76 185.59 120.76C184.676 120.76 183.976 120.55 183.49 120.13C183.014 119.701 182.776 119.071 182.776 118.24V116H183.7V118.24C183.7 118.828 183.854 119.253 184.162 119.514C184.47 119.766 184.937 119.892 185.562 119.892C186.29 119.892 186.967 119.757 187.592 119.486V116ZM195.576 116H196.36V123H195.436V117.61L191.264 123H190.48V116H191.404V121.39L195.576 116ZM204.054 116V123H203.13V116.896H199.966V120.018C199.966 121.185 199.742 121.987 199.294 122.426C198.855 122.865 198.249 123.056 197.474 123V122.132C198.006 122.188 198.398 122.062 198.65 121.754C198.911 121.446 199.042 120.867 199.042 120.018V116H204.054ZM211.877 122.118C211.168 122.818 210.3 123.168 209.273 123.168C208.247 123.168 207.374 122.818 206.655 122.118C205.946 121.409 205.591 120.536 205.591 119.5C205.591 118.464 205.946 117.596 206.655 116.896C207.374 116.187 208.247 115.832 209.273 115.832C210.3 115.832 211.168 116.187 211.877 116.896C212.596 117.596 212.955 118.464 212.955 119.5C212.955 120.536 212.596 121.409 211.877 122.118ZM207.313 121.474C207.845 122.006 208.499 122.272 209.273 122.272C210.048 122.272 210.701 122.006 211.233 121.474C211.765 120.933 212.031 120.275 212.031 119.5C212.031 118.725 211.765 118.072 211.233 117.54C210.701 116.999 210.048 116.728 209.273 116.728C208.499 116.728 207.845 116.999 207.313 117.54C206.781 118.072 206.515 118.725 206.515 119.5C206.515 120.275 206.781 120.933 207.313 121.474ZM217.763 123.168C216.709 123.168 215.831 122.818 215.131 122.118C214.431 121.409 214.081 120.536 214.081 119.5C214.081 118.464 214.431 117.596 215.131 116.896C215.831 116.187 216.709 115.832 217.763 115.832C218.454 115.832 219.075 116 219.625 116.336C220.176 116.663 220.577 117.106 220.829 117.666L220.073 118.1C219.887 117.68 219.583 117.349 219.163 117.106C218.753 116.854 218.286 116.728 217.763 116.728C216.989 116.728 216.335 116.999 215.803 117.54C215.271 118.072 215.005 118.725 215.005 119.5C215.005 120.275 215.271 120.933 215.803 121.474C216.335 122.006 216.989 122.272 217.763 122.272C218.286 122.272 218.753 122.151 219.163 121.908C219.574 121.656 219.896 121.32 220.129 120.9L220.899 121.348C220.61 121.908 220.185 122.351 219.625 122.678C219.065 123.005 218.445 123.168 217.763 123.168ZM225.068 118.66C225.721 118.66 226.272 118.865 226.72 119.276C227.177 119.677 227.406 120.195 227.406 120.83C227.406 121.465 227.177 121.987 226.72 122.398C226.272 122.799 225.721 123 225.068 123H222.226V116H223.15V118.66H225.068ZM225.068 122.104C225.46 122.104 225.791 121.987 226.062 121.754C226.342 121.521 226.482 121.213 226.482 120.83C226.482 120.447 226.342 120.139 226.062 119.906C225.791 119.673 225.46 119.556 225.068 119.556H223.15V122.104H225.068ZM238.168 122.118C237.459 122.818 236.591 123.168 235.564 123.168C234.538 123.168 233.665 122.818 232.946 122.118C232.237 121.409 231.882 120.536 231.882 119.5C231.882 118.464 232.237 117.596 232.946 116.896C233.665 116.187 234.538 115.832 235.564 115.832C236.591 115.832 237.459 116.187 238.168 116.896C238.887 117.596 239.246 118.464 239.246 119.5C239.246 120.536 238.887 121.409 238.168 122.118ZM233.604 121.474C234.136 122.006 234.79 122.272 235.564 122.272C236.339 122.272 236.992 122.006 237.524 121.474C238.056 120.933 238.322 120.275 238.322 119.5C238.322 118.725 238.056 118.072 237.524 117.54C236.992 116.999 236.339 116.728 235.564 116.728C234.79 116.728 234.136 116.999 233.604 117.54C233.072 118.072 232.806 118.725 232.806 119.5C232.806 120.275 233.072 120.933 233.604 121.474ZM245.559 116V116.896H243.081V123H242.157V116.896H239.679V116H245.559ZM252.565 116V123H251.641V116.896H247.609V123H246.685V116H252.565ZM258.271 115.832C259.27 115.832 260.119 116.187 260.819 116.896C261.528 117.605 261.883 118.473 261.883 119.5C261.883 120.527 261.528 121.395 260.819 122.104C260.119 122.813 259.27 123.168 258.271 123.168C257.03 123.168 256.087 122.655 255.443 121.628V125.8H254.519V116H255.443V117.372C256.087 116.345 257.03 115.832 258.271 115.832ZM256.241 121.474C256.773 122.006 257.426 122.272 258.201 122.272C258.976 122.272 259.629 122.006 260.161 121.474C260.693 120.933 260.959 120.275 260.959 119.5C260.959 118.725 260.693 118.072 260.161 117.54C259.629 116.999 258.976 116.728 258.201 116.728C257.426 116.728 256.773 116.999 256.241 117.54C255.709 118.072 255.443 118.725 255.443 119.5C255.443 120.275 255.709 120.933 256.241 121.474ZM269.439 116H270.363V123H269.439V121.628C268.795 122.655 267.853 123.168 266.611 123.168C265.613 123.168 264.759 122.813 264.049 122.104C263.349 121.395 262.999 120.527 262.999 119.5C262.999 118.473 263.349 117.605 264.049 116.896C264.759 116.187 265.613 115.832 266.611 115.832C267.853 115.832 268.795 116.345 269.439 117.372V116ZM264.721 121.474C265.253 122.006 265.907 122.272 266.681 122.272C267.456 122.272 268.109 122.006 268.641 121.474C269.173 120.933 269.439 120.275 269.439 119.5C269.439 118.725 269.173 118.072 268.641 117.54C268.109 116.999 267.456 116.728 266.681 116.728C265.907 116.728 265.253 116.999 264.721 117.54C264.189 118.072 263.923 118.725 263.923 119.5C263.923 120.275 264.189 120.933 264.721 121.474ZM276.772 119.402C277.537 119.682 277.92 120.228 277.92 121.04C277.92 121.609 277.729 122.081 277.346 122.454C276.973 122.818 276.431 123 275.722 123H272.32V116H275.442C276.123 116 276.651 116.177 277.024 116.532C277.397 116.877 277.584 117.325 277.584 117.876C277.584 118.576 277.313 119.085 276.772 119.402ZM275.442 116.896H273.244V119.024H275.442C276.254 119.024 276.66 118.66 276.66 117.932C276.66 117.605 276.553 117.353 276.338 117.176C276.133 116.989 275.834 116.896 275.442 116.896ZM275.722 122.104C276.133 122.104 276.445 122.006 276.66 121.81C276.884 121.614 276.996 121.339 276.996 120.984C276.996 120.657 276.884 120.401 276.66 120.214C276.445 120.018 276.133 119.92 275.722 119.92H273.244V122.104H275.722ZM284.416 116H285.2V123H284.276V117.61L280.104 123H279.32V116H280.244V121.39L284.416 116ZM292.194 116V116.896H289.716V123H288.792V116.896H286.314V116H292.194ZM296.162 118.66C296.815 118.66 297.366 118.865 297.814 119.276C298.271 119.677 298.5 120.195 298.5 120.83C298.5 121.465 298.271 121.987 297.814 122.398C297.366 122.799 296.815 123 296.162 123H293.32V116H294.244V118.66H296.162ZM296.162 122.104C296.554 122.104 296.885 121.987 297.156 121.754C297.436 121.521 297.576 121.213 297.576 120.83C297.576 120.447 297.436 120.139 297.156 119.906C296.885 119.673 296.554 119.556 296.162 119.556H294.244V122.104H296.162ZM309.262 122.118C308.553 122.818 307.685 123.168 306.658 123.168C305.631 123.168 304.759 122.818 304.04 122.118C303.331 121.409 302.976 120.536 302.976 119.5C302.976 118.464 303.331 117.596 304.04 116.896C304.759 116.187 305.631 115.832 306.658 115.832C307.685 115.832 308.553 116.187 309.262 116.896C309.981 117.596 310.34 118.464 310.34 119.5C310.34 120.536 309.981 121.409 309.262 122.118ZM304.698 121.474C305.23 122.006 305.883 122.272 306.658 122.272C307.433 122.272 308.086 122.006 308.618 121.474C309.15 120.933 309.416 120.275 309.416 119.5C309.416 118.725 309.15 118.072 308.618 117.54C308.086 116.999 307.433 116.728 306.658 116.728C305.883 116.728 305.23 116.999 304.698 117.54C304.166 118.072 303.9 118.725 303.9 119.5C303.9 120.275 304.166 120.933 304.698 121.474ZM316.653 116V116.896H314.175V123H313.251V116.896H310.773V116H316.653ZM321.117 119.402C321.929 119.71 322.335 120.27 322.335 121.082C322.335 121.661 322.107 122.155 321.649 122.566C321.201 122.967 320.557 123.168 319.717 123.168C318.308 123.168 317.384 122.608 316.945 121.488L317.729 121.026C318.019 121.857 318.681 122.272 319.717 122.272C320.259 122.272 320.674 122.155 320.963 121.922C321.262 121.689 321.411 121.39 321.411 121.026C321.411 120.699 321.29 120.433 321.047 120.228C320.805 120.023 320.478 119.92 320.067 119.92H319.045V119.024H319.787C320.189 119.024 320.501 118.926 320.725 118.73C320.959 118.525 321.075 118.245 321.075 117.89C321.075 117.554 320.94 117.279 320.669 117.064C320.399 116.84 320.035 116.728 319.577 116.728C318.7 116.728 318.117 117.078 317.827 117.778L317.057 117.33C317.524 116.331 318.364 115.832 319.577 115.832C320.315 115.832 320.903 116.028 321.341 116.42C321.78 116.803 321.999 117.274 321.999 117.834C321.999 118.553 321.705 119.075 321.117 119.402ZM326.582 118.66C327.235 118.66 327.786 118.865 328.234 119.276C328.691 119.677 328.92 120.195 328.92 120.83C328.92 121.465 328.691 121.987 328.234 122.398C327.786 122.799 327.235 123 326.582 123H323.74V116H324.664V118.66H326.582ZM329.9 116H330.824V123H329.9V116ZM326.582 122.104C326.974 122.104 327.305 121.987 327.576 121.754C327.856 121.521 327.996 121.213 327.996 120.83C327.996 120.447 327.856 120.139 327.576 119.906C327.305 119.673 326.974 119.556 326.582 119.556H324.664V122.104H326.582ZM337.243 119.402C338.008 119.682 338.391 120.228 338.391 121.04C338.391 121.609 338.199 122.081 337.817 122.454C337.443 122.818 336.902 123 336.193 123H332.791V116H335.913C336.594 116 337.121 116.177 337.495 116.532C337.868 116.877 338.055 117.325 338.055 117.876C338.055 118.576 337.784 119.085 337.243 119.402ZM335.913 116.896H333.715V119.024H335.913C336.725 119.024 337.131 118.66 337.131 117.932C337.131 117.605 337.023 117.353 336.809 117.176C336.603 116.989 336.305 116.896 335.913 116.896ZM336.193 122.104C336.603 122.104 336.916 122.006 337.131 121.81C337.355 121.614 337.467 121.339 337.467 120.984C337.467 120.657 337.355 120.401 337.131 120.214C336.916 120.018 336.603 119.92 336.193 119.92H333.715V122.104H336.193ZM340.83 122.916C340.68 123.065 340.498 123.14 340.284 123.14C340.069 123.14 339.887 123.065 339.738 122.916C339.588 122.767 339.514 122.585 339.514 122.37C339.514 122.155 339.588 121.973 339.738 121.824C339.887 121.675 340.069 121.6 340.284 121.6C340.498 121.6 340.68 121.675 340.83 121.824C340.979 121.973 341.054 122.155 341.054 122.37C341.054 122.585 340.979 122.767 340.83 122.916ZM138.12 135.2V145H137.14V136.124H132.1V145H131.12V135.2H138.12ZM146.088 144.118C145.379 144.818 144.511 145.168 143.484 145.168C142.458 145.168 141.585 144.818 140.866 144.118C140.157 143.409 139.802 142.536 139.802 141.5C139.802 140.464 140.157 139.596 140.866 138.896C141.585 138.187 142.458 137.832 143.484 137.832C144.511 137.832 145.379 138.187 146.088 138.896C146.807 139.596 147.166 140.464 147.166 141.5C147.166 142.536 146.807 143.409 146.088 144.118ZM141.524 143.474C142.056 144.006 142.71 144.272 143.484 144.272C144.259 144.272 144.912 144.006 145.444 143.474C145.976 142.933 146.242 142.275 146.242 141.5C146.242 140.725 145.976 140.072 145.444 139.54C144.912 138.999 144.259 138.728 143.484 138.728C142.71 138.728 142.056 138.999 141.524 139.54C140.992 140.072 140.726 140.725 140.726 141.5C140.726 142.275 140.992 142.933 141.524 143.474ZM154.592 138V145H153.668V138.896H149.636V145H148.712V138H154.592ZM160.298 137.832C161.297 137.832 162.146 138.187 162.846 138.896C163.556 139.605 163.91 140.473 163.91 141.5C163.91 142.527 163.556 143.395 162.846 144.104C162.146 144.813 161.297 145.168 160.298 145.168C159.057 145.168 158.114 144.655 157.47 143.628V147.8H156.546V138H157.47V139.372C158.114 138.345 159.057 137.832 160.298 137.832ZM158.268 143.474C158.8 144.006 159.454 144.272 160.228 144.272C161.003 144.272 161.656 144.006 162.188 143.474C162.72 142.933 162.986 142.275 162.986 141.5C162.986 140.725 162.72 140.072 162.188 139.54C161.656 138.999 161.003 138.728 160.228 138.728C159.454 138.728 158.8 138.999 158.268 139.54C157.736 140.072 157.47 140.725 157.47 141.5C157.47 142.275 157.736 142.933 158.268 143.474ZM171.313 144.118C170.603 144.818 169.735 145.168 168.709 145.168C167.682 145.168 166.809 144.818 166.091 144.118C165.381 143.409 165.027 142.536 165.027 141.5C165.027 140.464 165.381 139.596 166.091 138.896C166.809 138.187 167.682 137.832 168.709 137.832C169.735 137.832 170.603 138.187 171.313 138.896C172.031 139.596 172.391 140.464 172.391 141.5C172.391 142.536 172.031 143.409 171.313 144.118ZM166.749 143.474C167.281 144.006 167.934 144.272 168.709 144.272C169.483 144.272 170.137 144.006 170.669 143.474C171.201 142.933 171.467 142.275 171.467 141.5C171.467 140.725 171.201 140.072 170.669 139.54C170.137 138.999 169.483 138.728 168.709 138.728C167.934 138.728 167.281 138.999 166.749 139.54C166.217 140.072 165.951 140.725 165.951 141.5C165.951 142.275 166.217 142.933 166.749 143.474ZM177.045 145.168C176.037 145.168 175.197 144.837 174.525 144.174C173.853 143.502 173.517 142.634 173.517 141.57C173.517 140.375 173.694 139.461 174.049 138.826C174.404 138.182 175.122 137.599 176.205 137.076C176.41 136.973 176.681 136.852 177.017 136.712C177.362 136.572 177.619 136.46 177.787 136.376C177.964 136.292 178.156 136.185 178.361 136.054C178.566 135.914 178.72 135.76 178.823 135.592C178.926 135.424 178.991 135.223 179.019 134.99L179.747 135.41C179.71 135.634 179.635 135.844 179.523 136.04C179.411 136.236 179.294 136.395 179.173 136.516C179.061 136.637 178.879 136.773 178.627 136.922C178.384 137.062 178.193 137.165 178.053 137.23C177.922 137.286 177.689 137.384 177.353 137.524C177.026 137.664 176.807 137.757 176.695 137.804C176.042 138.084 175.561 138.378 175.253 138.686C174.945 138.985 174.726 139.377 174.595 139.862C174.912 139.442 175.314 139.134 175.799 138.938C176.294 138.733 176.774 138.63 177.241 138.63C178.174 138.63 178.944 138.938 179.551 139.554C180.167 140.161 180.475 140.94 180.475 141.892C180.475 142.835 180.148 143.619 179.495 144.244C178.851 144.86 178.034 145.168 177.045 145.168ZM177.045 144.244C177.773 144.244 178.37 144.025 178.837 143.586C179.313 143.138 179.551 142.573 179.551 141.892C179.551 141.201 179.327 140.637 178.879 140.198C178.44 139.75 177.852 139.526 177.115 139.526C176.452 139.526 175.85 139.736 175.309 140.156C174.768 140.567 174.497 141.117 174.497 141.808C174.497 142.517 174.74 143.101 175.225 143.558C175.72 144.015 176.326 144.244 177.045 144.244ZM186.647 138H187.627L184.631 145.644C184.36 146.335 183.973 146.876 183.469 147.268C182.974 147.669 182.419 147.847 181.803 147.8V146.932C182.643 147.025 183.282 146.54 183.721 145.476L183.903 145.042L180.767 138H181.747L184.379 143.866L186.647 138ZM189.864 136.88V136.068H193.504V136.88H189.864ZM193.84 138H194.624V145H193.7V139.61L189.528 145H188.744V138H189.668V143.39L193.84 138ZM201.618 138V138.896H199.14V145H198.216V138.896H195.738V138H201.618ZM205.704 137.832C206.74 137.832 207.576 138.201 208.21 138.938C208.854 139.666 209.176 140.529 209.176 141.528C209.176 141.631 209.167 141.775 209.148 141.962H203.002C203.096 142.671 203.394 143.236 203.898 143.656C204.412 144.067 205.042 144.272 205.788 144.272C206.32 144.272 206.778 144.165 207.16 143.95C207.552 143.726 207.846 143.437 208.042 143.082L208.854 143.558C208.546 144.053 208.126 144.445 207.594 144.734C207.062 145.023 206.456 145.168 205.774 145.168C204.673 145.168 203.777 144.823 203.086 144.132C202.396 143.441 202.05 142.564 202.05 141.5C202.05 140.455 202.391 139.582 203.072 138.882C203.754 138.182 204.631 137.832 205.704 137.832ZM205.704 138.728C204.976 138.728 204.365 138.947 203.87 139.386C203.385 139.815 203.096 140.375 203.002 141.066H208.224C208.131 140.329 207.846 139.755 207.37 139.344C206.894 138.933 206.339 138.728 205.704 138.728ZM217.38 137.832C218.416 137.832 219.251 138.201 219.886 138.938C220.53 139.666 220.852 140.529 220.852 141.528C220.852 141.631 220.843 141.775 220.824 141.962H214.678C214.771 142.671 215.07 143.236 215.574 143.656C216.087 144.067 216.717 144.272 217.464 144.272C217.996 144.272 218.453 144.165 218.836 143.95C219.228 143.726 219.522 143.437 219.718 143.082L220.53 143.558C220.222 144.053 219.802 144.445 219.27 144.734C218.738 145.023 218.131 145.168 217.45 145.168C216.349 145.168 215.453 144.823 214.762 144.132C214.071 143.441 213.726 142.564 213.726 141.5C213.726 140.455 214.067 139.582 214.748 138.882C215.429 138.182 216.307 137.832 217.38 137.832ZM217.38 138.728C216.652 138.728 216.041 138.947 215.546 139.386C215.061 139.815 214.771 140.375 214.678 141.066H219.9C219.807 140.329 219.522 139.755 219.046 139.344C218.57 138.933 218.015 138.728 217.38 138.728ZM231.702 144.104H232.682V146.876H231.758V145H222.322V138H223.246V144.104H226.55V138H227.474V144.104H230.778V138H231.702V144.104ZM237.04 137.832C238.076 137.832 238.912 138.201 239.546 138.938C240.19 139.666 240.512 140.529 240.512 141.528C240.512 141.631 240.503 141.775 240.484 141.962H234.338C234.432 142.671 234.73 143.236 235.234 143.656C235.748 144.067 236.378 144.272 237.124 144.272C237.656 144.272 238.114 144.165 238.496 143.95C238.888 143.726 239.182 143.437 239.378 143.082L240.19 143.558C239.882 144.053 239.462 144.445 238.93 144.734C238.398 145.023 237.792 145.168 237.11 145.168C236.009 145.168 235.113 144.823 234.422 144.132C233.732 143.441 233.386 142.564 233.386 141.5C233.386 140.455 233.727 139.582 234.408 138.882C235.09 138.182 235.967 137.832 237.04 137.832ZM237.04 138.728C236.312 138.728 235.701 138.947 235.206 139.386C234.721 139.815 234.432 140.375 234.338 141.066H239.56C239.467 140.329 239.182 139.755 238.706 139.344C238.23 138.933 237.675 138.728 237.04 138.728ZM249.234 137.832C250.233 137.832 251.082 138.187 251.782 138.896C252.491 139.605 252.846 140.473 252.846 141.5C252.846 142.527 252.491 143.395 251.782 144.104C251.082 144.813 250.233 145.168 249.234 145.168C247.993 145.168 247.05 144.655 246.406 143.628V147.8H245.482V138H246.406V139.372C247.05 138.345 247.993 137.832 249.234 137.832ZM247.204 143.474C247.736 144.006 248.389 144.272 249.164 144.272C249.939 144.272 250.592 144.006 251.124 143.474C251.656 142.933 251.922 142.275 251.922 141.5C251.922 140.725 251.656 140.072 251.124 139.54C250.592 138.999 249.939 138.728 249.164 138.728C248.389 138.728 247.736 138.999 247.204 139.54C246.672 140.072 246.406 140.725 246.406 141.5C246.406 142.275 246.672 142.933 247.204 143.474ZM260.402 138H261.326V145H260.402V143.628C259.758 144.655 258.816 145.168 257.574 145.168C256.576 145.168 255.722 144.813 255.012 144.104C254.312 143.395 253.962 142.527 253.962 141.5C253.962 140.473 254.312 139.605 255.012 138.896C255.722 138.187 256.576 137.832 257.574 137.832C258.816 137.832 259.758 138.345 260.402 139.372V138ZM255.684 143.474C256.216 144.006 256.87 144.272 257.644 144.272C258.419 144.272 259.072 144.006 259.604 143.474C260.136 142.933 260.402 142.275 260.402 141.5C260.402 140.725 260.136 140.072 259.604 139.54C259.072 138.999 258.419 138.728 257.644 138.728C256.87 138.728 256.216 138.999 255.684 139.54C255.152 140.072 254.886 140.725 254.886 141.5C254.886 142.275 255.152 142.933 255.684 143.474ZM266.895 141.402C267.707 141.71 268.113 142.27 268.113 143.082C268.113 143.661 267.884 144.155 267.427 144.566C266.979 144.967 266.335 145.168 265.495 145.168C264.085 145.168 263.161 144.608 262.723 143.488L263.507 143.026C263.796 143.857 264.459 144.272 265.495 144.272C266.036 144.272 266.451 144.155 266.741 143.922C267.039 143.689 267.189 143.39 267.189 143.026C267.189 142.699 267.067 142.433 266.825 142.228C266.582 142.023 266.255 141.92 265.845 141.92H264.823V141.024H265.565C265.966 141.024 266.279 140.926 266.503 140.73C266.736 140.525 266.853 140.245 266.853 139.89C266.853 139.554 266.717 139.279 266.447 139.064C266.176 138.84 265.812 138.728 265.355 138.728C264.477 138.728 263.894 139.078 263.605 139.778L262.835 139.33C263.301 138.331 264.141 137.832 265.355 137.832C266.092 137.832 266.68 138.028 267.119 138.42C267.557 138.803 267.777 139.274 267.777 139.834C267.777 140.553 267.483 141.075 266.895 141.402ZM269.797 142.34L269.587 138V135.2H270.707V138L270.497 142.34H269.797ZM270.693 144.916C270.544 145.065 270.362 145.14 270.147 145.14C269.932 145.14 269.75 145.065 269.601 144.916C269.452 144.767 269.377 144.585 269.377 144.37C269.377 144.155 269.452 143.973 269.601 143.824C269.75 143.675 269.932 143.6 270.147 143.6C270.362 143.6 270.544 143.675 270.693 143.824C270.842 143.973 270.917 144.155 270.917 144.37C270.917 144.585 270.842 144.767 270.693 144.916Z" fill="white"/>
<circle cx="33.9425" cy="123.829" r="6.82918" fill="#C81912"/>
<circle cx="79" cy="114" r="13" fill="#C81912"/>
<path fill-rule="evenodd" clip-rule="evenodd" d="M32.5511 136.439C32.4191 135.778 31.9357 135.243 31.2918 135.044C30.5686 134.821 29.7827 135.065 29.3124 135.658L26.6097 139.065C24.7585 141.398 21.7904 142.502 18.8235 142.237C11.5519 141.589 4.04597 142.17 -3.42021 144.141C-37.9518 153.255 -58.5567 188.637 -49.4425 223.169C-40.3282 257.7 -4.9463 278.305 29.5853 269.191C64.1169 260.077 84.7218 224.695 75.6076 190.163C70.3813 170.362 56.5177 155.14 39.13 147.475C36.2342 146.198 34.0008 143.697 33.3809 140.593L32.5511 136.439Z" fill="#C81912"/>
<circle cx="21.5475" cy="91.5475" r="3.49096" transform="rotate(-22.0902 21.5475 91.5475)" fill="#C81912"/>
</g>
<path fill-rule="evenodd" clip-rule="evenodd" d="M67.8052 67.6794C68.1341 67.4706 68.4931 67.3124 68.8662 67.2006C83.0115 62.9621 93.3197 49.8448 93.3197 34.32C93.3197 15.3656 77.9541 0 58.9997 0C40.0453 0 24.6797 15.3656 24.6797 34.32C24.6797 47.8227 32.4775 59.5042 43.8155 65.1068C43.8284 65.1132 43.8231 65.1326 43.8089 65.1315C43.7997 65.1308 43.7927 65.1396 43.7955 65.1483L46.9035 74.9903C47.6944 77.4949 50.6435 78.5705 52.8611 77.1631L67.8052 67.6794Z" fill="#C81912"/>
<path d="M68.8127 27.6379C69.6411 26.8095 69.6411 25.4664 68.8127 24.638L68.3612 24.1865C67.5328 23.3581 66.1897 23.3581 65.3613 24.1865L58.9992 30.5486L52.6372 24.1865C51.8088 23.3581 50.4656 23.3581 49.6372 24.1865L49.1858 24.638C48.3574 25.4664 48.3574 26.8095 49.1858 27.6379L55.5478 34L49.1858 40.362C48.3574 41.1904 48.3574 42.5336 49.1858 43.362L49.6372 43.8134C50.4656 44.6419 51.8088 44.6419 52.6372 43.8134L58.9992 37.4514L65.3613 43.8134C66.1897 44.6418 67.5328 44.6419 68.3612 43.8134L68.8127 43.362C69.6411 42.5336 69.6411 41.1904 68.8127 40.362L62.4506 34L68.8127 27.6379Z" fill="white"/>
<defs>
<clipPath id="clip0_507_1208">
<rect y="42" width="438" height="132" rx="32" fill="white"/>
</clipPath>
<clipPath id="clip1_507_1208">
<rect width="24" height="24" fill="white" transform="translate(390 66)"/>
</clipPath>
</defs>
</svg>
