<svg width="438" height="174" viewBox="0 0 438 174" fill="none" xmlns="http://www.w3.org/2000/svg">
<g clip-path="url(#clip0_507_1124)">
<rect y="42" width="438" height="132" rx="32" fill="#B5FFA2"/>
<circle cx="20.607" cy="108.295" r="9.29547" fill="#7DED61"/>
<circle cx="80.099" cy="146.717" r="3.71819" fill="#7DED61"/>
<path d="M79.4438 110.025C82.4971 117.548 78.8737 126.122 71.3507 129.175C70.5208 129.512 69.6781 129.768 68.8315 129.946C64.1204 130.937 58.8591 132.284 56.3382 136.386C53.3951 141.174 55.0036 147.393 59.3496 150.957C68.015 158.064 75.0268 167.432 79.3829 178.619C92.9059 213.348 75.7149 252.464 40.9856 265.987C6.25636 279.51 -32.8599 262.319 -46.3829 227.59C-59.9059 192.861 -42.7149 153.744 -7.98562 140.221C7.18342 134.315 23.1894 134.268 37.5341 138.982C42.7299 140.69 48.6536 139.072 51.5174 134.413L52.5823 132.68C54.694 129.244 53.7172 124.819 52.2006 121.082C49.1473 113.559 52.7707 104.985 60.2937 101.932C67.8167 98.8789 76.3906 102.502 79.4438 110.025Z" fill="#7DED61"/>
<path d="M136.176 88H139.92L151.056 64H147.312L140.912 77.792L134.096 64H130.16L139.056 81.824L136.176 88ZM148.378 80.032C148.378 84.8 151.834 88.288 156.506 88.288C160.474 88.288 163.482 85.824 164.026 82.528L160.73 81.952C160.314 83.936 158.81 85.248 156.506 85.248C153.754 85.248 151.834 83.168 151.834 80.032C151.834 76.864 153.786 74.848 156.538 74.848C158.65 74.848 160.122 76.064 160.602 77.984L163.93 77.44C163.194 74.048 160.41 71.808 156.538 71.808C151.866 71.808 148.378 75.264 148.378 80.032ZM166.256 88H169.552V74.976H176.688V88H179.984V72.096H166.256V88ZM190.895 88.288C194.735 88.288 197.487 86.368 198.351 83.2L195.183 82.624C194.607 84.32 193.231 85.376 190.895 85.376C188.239 85.376 186.351 83.904 186.031 80.96H198.351C198.415 80.448 198.479 79.904 198.479 79.424C198.479 74.912 195.279 71.808 190.703 71.808C185.999 71.808 182.607 75.296 182.607 80.032C182.607 84.832 185.775 88.288 190.895 88.288ZM190.703 74.592C193.039 74.592 194.639 76 194.959 78.304H186.159C186.703 75.84 188.591 74.592 190.703 74.592ZM201.203 88H222.259V72.096H218.931V85.12H213.363V72.096H210.067V85.12H204.499V72.096H201.203V88ZM226.115 88H229.411V81.152H236.771V88H240.099V72.096H236.771V78.272H229.411V72.096H226.115V88ZM251.036 71.808C246.236 71.808 242.684 75.296 242.684 80.032C242.684 84.8 246.236 88.288 251.036 88.288C255.868 88.288 259.388 84.8 259.388 80.032C259.388 75.296 255.868 71.808 251.036 71.808ZM251.036 74.848C253.948 74.848 255.932 76.928 255.932 80.032C255.932 83.136 253.948 85.248 251.036 85.248C248.124 85.248 246.14 83.136 246.14 80.032C246.14 76.928 248.124 74.848 251.036 74.848ZM263.056 64L263.6 80.48H266.448L266.96 64H263.056ZM265.008 88.32C266.384 88.32 267.312 87.424 267.312 86.08C267.312 84.704 266.384 83.808 265.008 83.808C263.664 83.808 262.704 84.704 262.704 86.08C262.704 87.424 263.664 88.32 265.008 88.32Z" fill="#333333"/>
<path d="M135.698 123.168C134.214 123.168 132.987 122.678 132.016 121.698C131.045 120.718 130.56 119.519 130.56 118.1C130.56 116.681 131.045 115.482 132.016 114.502C132.987 113.522 134.214 113.032 135.698 113.032C136.603 113.032 137.434 113.251 138.19 113.69C138.946 114.119 139.529 114.703 139.94 115.44L139.072 115.944C138.764 115.347 138.307 114.871 137.7 114.516C137.093 114.161 136.426 113.984 135.698 113.984C134.475 113.984 133.477 114.381 132.702 115.174C131.927 115.967 131.54 116.943 131.54 118.1C131.54 119.257 131.927 120.233 132.702 121.026C133.477 121.819 134.475 122.216 135.698 122.216C136.426 122.216 137.093 122.039 137.7 121.684C138.307 121.329 138.764 120.853 139.072 120.256L139.94 120.746C139.539 121.483 138.955 122.071 138.19 122.51C137.434 122.949 136.603 123.168 135.698 123.168ZM147.292 116V123H146.368V116.896H142.336V123H141.412V116H147.292ZM155.266 116H156.19V123H155.266V121.628C154.622 122.655 153.679 123.168 152.438 123.168C151.439 123.168 150.585 122.813 149.876 122.104C149.176 121.395 148.826 120.527 148.826 119.5C148.826 118.473 149.176 117.605 149.876 116.896C150.585 116.187 151.439 115.832 152.438 115.832C153.679 115.832 154.622 116.345 155.266 117.372V116ZM150.548 121.474C151.08 122.006 151.733 122.272 152.508 122.272C153.282 122.272 153.936 122.006 154.468 121.474C155 120.933 155.266 120.275 155.266 119.5C155.266 118.725 155 118.072 154.468 117.54C153.936 116.999 153.282 116.728 152.508 116.728C151.733 116.728 151.08 116.999 150.548 117.54C150.016 118.072 149.75 118.725 149.75 119.5C149.75 120.275 150.016 120.933 150.548 121.474ZM161.408 123.168C160.353 123.168 159.476 122.818 158.776 122.118C158.076 121.409 157.726 120.536 157.726 119.5C157.726 118.464 158.076 117.596 158.776 116.896C159.476 116.187 160.353 115.832 161.408 115.832C162.099 115.832 162.719 116 163.27 116.336C163.821 116.663 164.222 117.106 164.474 117.666L163.718 118.1C163.531 117.68 163.228 117.349 162.808 117.106C162.397 116.854 161.931 116.728 161.408 116.728C160.633 116.728 159.98 116.999 159.448 117.54C158.916 118.072 158.65 118.725 158.65 119.5C158.65 120.275 158.916 120.933 159.448 121.474C159.98 122.006 160.633 122.272 161.408 122.272C161.931 122.272 162.397 122.151 162.808 121.908C163.219 121.656 163.541 121.32 163.774 120.9L164.544 121.348C164.255 121.908 163.83 122.351 163.27 122.678C162.71 123.005 162.089 123.168 161.408 123.168ZM170.967 116H171.751V123H170.827V117.61L166.655 123H165.871V116H166.795V121.39L170.967 116ZM176.813 123.168C175.805 123.168 174.965 122.837 174.293 122.174C173.621 121.502 173.285 120.634 173.285 119.57C173.285 118.375 173.462 117.461 173.817 116.826C174.171 116.182 174.89 115.599 175.973 115.076C176.178 114.973 176.449 114.852 176.785 114.712C177.13 114.572 177.387 114.46 177.555 114.376C177.732 114.292 177.923 114.185 178.129 114.054C178.334 113.914 178.488 113.76 178.591 113.592C178.693 113.424 178.759 113.223 178.787 112.99L179.515 113.41C179.477 113.634 179.403 113.844 179.291 114.04C179.179 114.236 179.062 114.395 178.941 114.516C178.829 114.637 178.647 114.773 178.395 114.922C178.152 115.062 177.961 115.165 177.821 115.23C177.69 115.286 177.457 115.384 177.121 115.524C176.794 115.664 176.575 115.757 176.463 115.804C175.809 116.084 175.329 116.378 175.021 116.686C174.713 116.985 174.493 117.377 174.363 117.862C174.68 117.442 175.081 117.134 175.567 116.938C176.061 116.733 176.542 116.63 177.009 116.63C177.942 116.63 178.712 116.938 179.319 117.554C179.935 118.161 180.243 118.94 180.243 119.892C180.243 120.835 179.916 121.619 179.263 122.244C178.619 122.86 177.802 123.168 176.813 123.168ZM176.813 122.244C177.541 122.244 178.138 122.025 178.605 121.586C179.081 121.138 179.319 120.573 179.319 119.892C179.319 119.201 179.095 118.637 178.647 118.198C178.208 117.75 177.62 117.526 176.883 117.526C176.22 117.526 175.618 117.736 175.077 118.156C174.535 118.567 174.265 119.117 174.265 119.808C174.265 120.517 174.507 121.101 174.993 121.558C175.487 122.015 176.094 122.244 176.813 122.244ZM187.514 122.118C186.805 122.818 185.937 123.168 184.91 123.168C183.883 123.168 183.011 122.818 182.292 122.118C181.583 121.409 181.228 120.536 181.228 119.5C181.228 118.464 181.583 117.596 182.292 116.896C183.011 116.187 183.883 115.832 184.91 115.832C185.937 115.832 186.805 116.187 187.514 116.896C188.233 117.596 188.592 118.464 188.592 119.5C188.592 120.536 188.233 121.409 187.514 122.118ZM182.95 121.474C183.482 122.006 184.135 122.272 184.91 122.272C185.685 122.272 186.338 122.006 186.87 121.474C187.402 120.933 187.668 120.275 187.668 119.5C187.668 118.725 187.402 118.072 186.87 117.54C186.338 116.999 185.685 116.728 184.91 116.728C184.135 116.728 183.482 116.999 182.95 117.54C182.418 118.072 182.152 118.725 182.152 119.5C182.152 120.275 182.418 120.933 182.95 121.474ZM197.25 119.402C198.062 119.71 198.468 120.27 198.468 121.082C198.468 121.661 198.24 122.155 197.782 122.566C197.334 122.967 196.69 123.168 195.85 123.168C194.441 123.168 193.517 122.608 193.078 121.488L193.862 121.026C194.152 121.857 194.814 122.272 195.85 122.272C196.392 122.272 196.807 122.155 197.096 121.922C197.395 121.689 197.544 121.39 197.544 121.026C197.544 120.699 197.423 120.433 197.18 120.228C196.938 120.023 196.611 119.92 196.2 119.92H195.178V119.024H195.92C196.322 119.024 196.634 118.926 196.858 118.73C197.092 118.525 197.208 118.245 197.208 117.89C197.208 117.554 197.073 117.279 196.802 117.064C196.532 116.84 196.168 116.728 195.71 116.728C194.833 116.728 194.25 117.078 193.96 117.778L193.19 117.33C193.657 116.331 194.497 115.832 195.71 115.832C196.448 115.832 197.036 116.028 197.474 116.42C197.913 116.803 198.132 117.274 198.132 117.834C198.132 118.553 197.838 119.075 197.25 119.402ZM205.893 116H206.817V123H205.893V121.628C205.249 122.655 204.306 123.168 203.065 123.168C202.066 123.168 201.212 122.813 200.503 122.104C199.803 121.395 199.453 120.527 199.453 119.5C199.453 118.473 199.803 117.605 200.503 116.896C201.212 116.187 202.066 115.832 203.065 115.832C204.306 115.832 205.249 116.345 205.893 117.372V116ZM201.175 121.474C201.707 122.006 202.36 122.272 203.135 122.272C203.909 122.272 204.563 122.006 205.095 121.474C205.627 120.933 205.893 120.275 205.893 119.5C205.893 118.725 205.627 118.072 205.095 117.54C204.563 116.999 203.909 116.728 203.135 116.728C202.36 116.728 201.707 116.999 201.175 117.54C200.643 118.072 200.377 118.725 200.377 119.5C200.377 120.275 200.643 120.933 201.175 121.474ZM218.139 122.118C217.43 122.818 216.562 123.168 215.535 123.168C214.508 123.168 213.636 122.818 212.917 122.118C212.208 121.409 211.853 120.536 211.853 119.5C211.853 118.464 212.208 117.596 212.917 116.896C213.636 116.187 214.508 115.832 215.535 115.832C216.562 115.832 217.43 116.187 218.139 116.896C218.858 117.596 219.217 118.464 219.217 119.5C219.217 120.536 218.858 121.409 218.139 122.118ZM213.575 121.474C214.107 122.006 214.76 122.272 215.535 122.272C216.31 122.272 216.963 122.006 217.495 121.474C218.027 120.933 218.293 120.275 218.293 119.5C218.293 118.725 218.027 118.072 217.495 117.54C216.963 116.999 216.31 116.728 215.535 116.728C214.76 116.728 214.107 116.999 213.575 117.54C213.043 118.072 212.777 118.725 212.777 119.5C212.777 120.275 213.043 120.933 213.575 121.474ZM225.53 116V116.896H223.052V123H222.128V116.896H219.65V116H225.53ZM229.994 119.402C230.806 119.71 231.212 120.27 231.212 121.082C231.212 121.661 230.984 122.155 230.526 122.566C230.078 122.967 229.434 123.168 228.594 123.168C227.185 123.168 226.261 122.608 225.822 121.488L226.606 121.026C226.896 121.857 227.558 122.272 228.594 122.272C229.136 122.272 229.551 122.155 229.84 121.922C230.139 121.689 230.288 121.39 230.288 121.026C230.288 120.699 230.167 120.433 229.924 120.228C229.682 120.023 229.355 119.92 228.944 119.92H227.922V119.024H228.664C229.066 119.024 229.378 118.926 229.602 118.73C229.836 118.525 229.952 118.245 229.952 117.89C229.952 117.554 229.817 117.279 229.546 117.064C229.276 116.84 228.912 116.728 228.454 116.728C227.577 116.728 226.994 117.078 226.704 117.778L225.934 117.33C226.401 116.331 227.241 115.832 228.454 115.832C229.192 115.832 229.78 116.028 230.218 116.42C230.657 116.803 230.876 117.274 230.876 117.834C230.876 118.553 230.582 119.075 229.994 119.402ZM235.459 118.66C236.112 118.66 236.663 118.865 237.111 119.276C237.568 119.677 237.797 120.195 237.797 120.83C237.797 121.465 237.568 121.987 237.111 122.398C236.663 122.799 236.112 123 235.459 123H232.617V116H233.541V118.66H235.459ZM238.777 116H239.701V123H238.777V116ZM235.459 122.104C235.851 122.104 236.182 121.987 236.453 121.754C236.733 121.521 236.873 121.213 236.873 120.83C236.873 120.447 236.733 120.139 236.453 119.906C236.182 119.673 235.851 119.556 235.459 119.556H233.541V122.104H235.459ZM246.12 119.402C246.885 119.682 247.268 120.228 247.268 121.04C247.268 121.609 247.076 122.081 246.694 122.454C246.32 122.818 245.779 123 245.07 123H241.668V116H244.79C245.471 116 245.998 116.177 246.372 116.532C246.745 116.877 246.932 117.325 246.932 117.876C246.932 118.576 246.661 119.085 246.12 119.402ZM244.79 116.896H242.592V119.024H244.79C245.602 119.024 246.008 118.66 246.008 117.932C246.008 117.605 245.9 117.353 245.686 117.176C245.48 116.989 245.182 116.896 244.79 116.896ZM245.07 122.104C245.48 122.104 245.793 122.006 246.008 121.81C246.232 121.614 246.344 121.339 246.344 120.984C246.344 120.657 246.232 120.401 246.008 120.214C245.793 120.018 245.48 119.92 245.07 119.92H242.592V122.104H245.07ZM258.034 122.118C257.324 122.818 256.456 123.168 255.43 123.168C254.403 123.168 253.53 122.818 252.812 122.118C252.102 121.409 251.748 120.536 251.748 119.5C251.748 118.464 252.102 117.596 252.812 116.896C253.53 116.187 254.403 115.832 255.43 115.832C256.456 115.832 257.324 116.187 258.034 116.896C258.752 117.596 259.112 118.464 259.112 119.5C259.112 120.536 258.752 121.409 258.034 122.118ZM253.47 121.474C254.002 122.006 254.655 122.272 255.43 122.272C256.204 122.272 256.858 122.006 257.39 121.474C257.922 120.933 258.188 120.275 258.188 119.5C258.188 118.725 257.922 118.072 257.39 117.54C256.858 116.999 256.204 116.728 255.43 116.728C254.655 116.728 254.002 116.999 253.47 117.54C252.938 118.072 252.672 118.725 252.672 119.5C252.672 120.275 252.938 120.933 253.47 121.474ZM269.114 116H270.038V123H269.114V119.948H265.082V123H264.158V116H265.082V119.052H269.114V116ZM278.012 116H278.936V123H278.012V121.628C277.368 122.655 276.425 123.168 275.184 123.168C274.185 123.168 273.331 122.813 272.622 122.104C271.922 121.395 271.572 120.527 271.572 119.5C271.572 118.473 271.922 117.605 272.622 116.896C273.331 116.187 274.185 115.832 275.184 115.832C276.425 115.832 277.368 116.345 278.012 117.372V116ZM273.294 121.474C273.826 122.006 274.479 122.272 275.254 122.272C276.028 122.272 276.682 122.006 277.214 121.474C277.746 120.933 278.012 120.275 278.012 119.5C278.012 118.725 277.746 118.072 277.214 117.54C276.682 116.999 276.028 116.728 275.254 116.728C274.479 116.728 273.826 116.999 273.294 117.54C272.762 118.072 272.496 118.725 272.496 119.5C272.496 120.275 272.762 120.933 273.294 121.474ZM289.348 116H290.272V123H280.892V116H281.816V122.104H285.12V116H286.044V122.104H289.348V116ZM295.46 115.832C296.496 115.832 297.331 116.201 297.966 116.938C298.61 117.666 298.932 118.529 298.932 119.528C298.932 119.631 298.923 119.775 298.904 119.962H292.758C292.851 120.671 293.15 121.236 293.654 121.656C294.167 122.067 294.797 122.272 295.544 122.272C296.076 122.272 296.533 122.165 296.916 121.95C297.308 121.726 297.602 121.437 297.798 121.082L298.61 121.558C298.302 122.053 297.882 122.445 297.35 122.734C296.818 123.023 296.211 123.168 295.53 123.168C294.429 123.168 293.533 122.823 292.842 122.132C292.151 121.441 291.806 120.564 291.806 119.5C291.806 118.455 292.147 117.582 292.828 116.882C293.509 116.182 294.387 115.832 295.46 115.832ZM295.46 116.728C294.732 116.728 294.121 116.947 293.626 117.386C293.141 117.815 292.851 118.375 292.758 119.066H297.98C297.887 118.329 297.602 117.755 297.126 117.344C296.65 116.933 296.095 116.728 295.46 116.728ZM301.522 114.88V114.068H305.162V114.88H301.522ZM305.498 116H306.282V123H305.358V117.61L301.186 123H300.402V116H301.326V121.39L305.498 116ZM136.636 145H135.404L131.904 141.626V145H130.98V138H131.904V141.094L135.236 138H136.496L132.884 141.36L136.636 145ZM143.067 144.118C142.357 144.818 141.489 145.168 140.463 145.168C139.436 145.168 138.563 144.818 137.845 144.118C137.135 143.409 136.781 142.536 136.781 141.5C136.781 140.464 137.135 139.596 137.845 138.896C138.563 138.187 139.436 137.832 140.463 137.832C141.489 137.832 142.357 138.187 143.067 138.896C143.785 139.596 144.145 140.464 144.145 141.5C144.145 142.536 143.785 143.409 143.067 144.118ZM138.503 143.474C139.035 144.006 139.688 144.272 140.463 144.272C141.237 144.272 141.891 144.006 142.423 143.474C142.955 142.933 143.221 142.275 143.221 141.5C143.221 140.725 142.955 140.072 142.423 139.54C141.891 138.999 141.237 138.728 140.463 138.728C139.688 138.728 139.035 138.999 138.503 139.54C137.971 140.072 137.705 140.725 137.705 141.5C137.705 142.275 137.971 142.933 138.503 143.474ZM152.551 138V145H151.627V139.414L149.177 143.39H149.065L146.615 139.414V145H145.691V138H146.755L149.121 141.836L151.487 138H152.551ZM160.389 138V145H159.465V138.896H155.433V145H154.509V138H160.389ZM168.363 138H169.287V145H168.363V143.628C167.719 144.655 166.777 145.168 165.535 145.168C164.537 145.168 163.683 144.813 162.973 144.104C162.273 143.395 161.923 142.527 161.923 141.5C161.923 140.473 162.273 139.605 162.973 138.896C163.683 138.187 164.537 137.832 165.535 137.832C166.777 137.832 167.719 138.345 168.363 139.372V138ZM163.645 143.474C164.177 144.006 164.831 144.272 165.605 144.272C166.38 144.272 167.033 144.006 167.565 143.474C168.097 142.933 168.363 142.275 168.363 141.5C168.363 140.725 168.097 140.072 167.565 139.54C167.033 138.999 166.38 138.728 165.605 138.728C164.831 138.728 164.177 138.999 163.645 139.54C163.113 140.072 162.847 140.725 162.847 141.5C162.847 142.275 163.113 142.933 163.645 143.474ZM176.2 138H177.124V145H176.2V141.948H172.168V145H171.244V138H172.168V141.052H176.2V138ZM184.174 138H184.958V145H184.034V139.61L179.862 145H179.078V138H180.002V143.39L184.174 138ZM192.008 138H192.792V145H191.868V139.61L187.696 145H186.912V138H187.836V143.39L192.008 138ZM199.422 139.176C199.272 139.325 199.09 139.4 198.876 139.4C198.661 139.4 198.479 139.325 198.33 139.176C198.18 139.027 198.106 138.845 198.106 138.63C198.106 138.415 198.18 138.233 198.33 138.084C198.479 137.935 198.661 137.86 198.876 137.86C199.09 137.86 199.272 137.935 199.422 138.084C199.571 138.233 199.646 138.415 199.646 138.63C199.646 138.845 199.571 139.027 199.422 139.176ZM199.422 144.916C199.272 145.065 199.09 145.14 198.876 145.14C198.661 145.14 198.479 145.065 198.33 144.916C198.18 144.767 198.106 144.585 198.106 144.37C198.106 144.155 198.18 143.973 198.33 143.824C198.479 143.675 198.661 143.6 198.876 143.6C199.09 143.6 199.272 143.675 199.422 143.824C199.571 143.973 199.646 144.155 199.646 144.37C199.646 144.585 199.571 144.767 199.422 144.916ZM201.836 146.4H200.912C201.939 144.347 202.452 142.247 202.452 140.1C202.452 137.953 201.939 135.853 200.912 133.8H201.836C202.863 135.853 203.376 137.953 203.376 140.1C203.376 142.247 202.863 144.347 201.836 146.4Z" fill="#333333"/>
<g clip-path="url(#clip1_507_1124)">
<path d="M402 77.5561L407.778 71.7781L408.761 72.7613L402.983 78.5394L408.761 84.3174L407.778 85.3006L402 79.5226L396.222 85.3006L395.239 84.3174L401.017 78.5394L395.239 72.7613L396.222 71.7781L402 77.5561Z" fill="#333333"/>
</g>
</g>
<path fill-rule="evenodd" clip-rule="evenodd" d="M58.9997 68.64C77.9541 68.64 93.3197 53.2744 93.3197 34.32C93.3197 15.3656 77.9541 0 58.9997 0C40.0453 0 24.6797 15.3656 24.6797 34.32C24.6797 44.9926 29.5513 54.5274 37.192 60.822C37.2042 60.832 37.1934 60.8515 37.1784 60.8464C37.1693 60.8433 37.1597 60.8501 37.1597 60.8598V71.5042C37.1597 74.4834 40.2999 76.4171 42.9603 75.076L54.9717 69.0212C55.6351 68.6867 56.3783 68.5494 57.1202 68.5894C57.7425 68.623 58.3691 68.64 58.9997 68.64Z" fill="#7DED61"/>
<path fill-rule="evenodd" clip-rule="evenodd" d="M70.3007 24.3463C71.3598 25.1583 71.562 26.6744 70.7526 27.7356L58.7423 43.4828C58.3188 44.0381 57.6769 44.3831 56.9812 44.4294C56.2856 44.4757 55.6039 44.2188 55.1109 43.7245L47.4879 36.0814C46.5452 35.1362 46.5452 33.6063 47.4879 32.661C48.4342 31.7123 49.971 31.7123 50.9172 32.661L56.5779 38.3366L66.9028 24.7993C67.7151 23.7343 69.2378 23.5313 70.3007 24.3463Z" fill="white"/>
<defs>
<clipPath id="clip0_507_1124">
<rect y="42" width="438" height="132" rx="32" fill="white"/>
</clipPath>
<clipPath id="clip1_507_1124">
<rect width="24" height="24" fill="white" transform="translate(390 66)"/>
</clipPath>
</defs>
</svg>
